<?xml version="1.0" encoding="UTF-8" standalone="no"?>
<svg
   xmlns:dc="http://purl.org/dc/elements/1.1/"
   xmlns:cc="http://creativecommons.org/ns#"
   xmlns:rdf="http://www.w3.org/1999/02/22-rdf-syntax-ns#"
   xmlns:svg="http://www.w3.org/2000/svg"
   xmlns="http://www.w3.org/2000/svg"
   xmlns:sodipodi="http://sodipodi.sourceforge.net/DTD/sodipodi-0.dtd"
   xmlns:inkscape="http://www.inkscape.org/namespaces/inkscape"
   width="39.677265mm"
   height="33.396362mm"
   viewBox="0 0 39.677265 33.396362"
   version="1.1"
   id="svg1007"
   sodipodi:docname="logo-round.svg"
   inkscape:version="0.92.3 (unknown)">
  <sodipodi:namedview
     pagecolor="#ffffff"
     bordercolor="#666666"
     borderopacity="1"
     objecttolerance="10"
     gridtolerance="10"
     guidetolerance="10"
     inkscape:pageopacity="0"
     inkscape:pageshadow="2"
     inkscape:window-width="1920"
     inkscape:window-height="1017"
     id="namedview32"
     showgrid="false"
     inkscape:zoom="1.8697146"
     inkscape:cx="5.1839105"
     inkscape:cy="63.111236"
     inkscape:window-x="0"
     inkscape:window-y="30"
     inkscape:window-maximized="1"
     inkscape:current-layer="svg1007" />
  <defs
     id="defs1001">
    <filter
       style="color-interpolation-filters:sRGB"
       id="filter1637"
       x="-0.0064512459"
       width="1.0129025"
       y="-0.0081453817"
       height="1.0162908">
      <feGaussianBlur
         stdDeviation="0.10399948"
         id="feGaussianBlur1639" />
    </filter>
    <clipPath
       id="clipPath845"
       clipPathUnits="userSpaceOnUse">
      <ellipse
         ry="20.69879"
         rx="21.829391"
         cy="-48.487438"
         cx="-163.23019"
         id="ellipse847"
         style="opacity:1;fill:#153477;fill-opacity:1;fill-rule:nonzero;stroke:none;stroke-width:0.56499994;stroke-linecap:round;stroke-linejoin:round;stroke-miterlimit:4;stroke-dasharray:none;stroke-dashoffset:0;stroke-opacity:1;paint-order:stroke fill markers" />
    </clipPath>
  </defs>
  <metadata
     id="metadata1004">
    <rdf:RDF>
      <cc:Work
         rdf:about="">
        <dc:format>image/svg+xml</dc:format>
        <dc:type
           rdf:resource="http://purl.org/dc/dcmitype/StillImage" />
        <dc:title />
      </cc:Work>
    </rdf:RDF>
  </metadata>
  <ellipse
     ry="20.698788"
     rx="21.829391"
     cy="25.384598"
     cx="33.973492"
     id="ellipse851"
     style="opacity:1;fill:#153477;fill-opacity:1;fill-rule:nonzero;stroke:none;stroke-width:3.16499996;stroke-linecap:round;stroke-linejoin:round;stroke-miterlimit:4;stroke-dasharray:6.32999988, 3.16499994;stroke-dashoffset:0;stroke-opacity:1;paint-order:markers fill stroke"
     transform="scale(-1,1)" />
  <g
     clip-path="url(#clipPath845)"
     id="layer1"
     transform="matrix(-1,0,0,1,-197.20368,73.872034)">
    <path
       style="fill:#ffffff;fill-opacity:1;stroke:none;stroke-width:0.26458332px;stroke-linecap:butt;stroke-linejoin:miter;stroke-opacity:1"
       d="m -171.85711,-65.04318 5.61266,-1.870886 4.54358,-0.133635 4.47676,0.868626 4.81085,2.271791 4.07587,3.875408 2.41842,5.34007 1.79342,4.457831 c 1.29144,6.211183 0.9441,6.199646 0.9441,6.199646 0,0 0.27344,-0.0082 0.51943,3.497096 l 0.01,15.637339 -33.95278,-0.06681 4.54781,-14.218143 0.93544,-5.14494 0.20045,-4.476764 -1.13589,-2.539061 -2.2718,-0.467721 -3.0736,1.202712 -3.20723,1.870887 -0.26727,-2.672695 -0.13363,-3.474504 0.53454,-1.870887 3.4745,-3.674955 2.33861,-2.405426 z"
       id="path841"
       inkscape:connector-curvature="0" />
    <path
       id="path1332"
       d="m -149.12072,-60.072128 c -5.13671,-5.92046 -11.57544,-6.31425 -13.39689,-6.31425 -1.82146,0 -5.59526,-0.28367 -10.81411,2.70882 -0.78835,0.45204 -1.67749,1.94007 -2.44915,2.53635 -4.27353,3.787641 -5.03423,5.043731 -5.36831,6.313261 -0.33409,1.26953 0.15656,6.31523 0.35701,6.51568 0.20045,0.20045 4.85975,-2.91314 6.60485,-2.87789 1.74509,0.0353 3.28412,0.53927 3.15049,4.68196 -0.2247,3.91728 -0.35275,7.233345 -1.87089,10.757585 h 30.3351 c 0,-8.666175 -0.12709,-16.649905 -6.5481,-24.321516 z"
       style="fill:none;stroke:none;stroke-width:0.96499997;stroke-linecap:square;stroke-linejoin:miter;stroke-miterlimit:4;stroke-dasharray:none;stroke-opacity:0.22352941;filter:url(#filter1637)"
       inkscape:connector-curvature="0" />
    <path
       id="path1334"
       d="m -163.15135,-67.435668 c -2.01811,-0.0114 -5.63456,0.10977 -10.28723,2.777609 -0.52446,0.300721 -0.94181,0.818001 -1.36322,1.326011 -0.42141,0.508019 -0.83945,1.01428 -1.14257,1.24851 l -0.0119,0.009 -0.0114,0.01 c -2.14594,1.901949 -3.41997,3.17432 -4.21679,4.158399 -0.79683,0.984081 -1.11914,1.710631 -1.29915,2.394691 -0.11094,0.42156 -0.13088,0.97718 -0.12868,1.64847 0.002,0.6713 0.0384,1.43678 0.092,2.16782 0.0536,0.73105 0.12414,1.42711 0.19483,1.96112 0.0353,0.267 0.0704,0.49219 0.10593,0.66973 0.0177,0.0888 0.0344,0.16539 0.0563,0.23823 0.0739,0.35512 0.13601,0.53642 0.26304,0.89555 0.40392,-0.44823 0.86107,-0.63294 1.33841,-0.8878 0.50067,-0.26765 1.15401,-0.63458 1.85157,-1.00562 0.69756,-0.37103 1.43948,-0.74621 2.09962,-1.01958 0.66013,-0.27337 1.25657,-0.43164 1.54512,-0.42581 0.82899,0.0168 1.47348,0.13617 1.93166,0.64285 0.45819,0.50669 0.81108,1.52981 0.74621,3.54087 -0.22454,3.91667 -4.71972,19.160083 -6.19666,22.588668 l 35.62636,0.06149 c 0.43485,-23.676548 -0.13583,-28.712155 -6.66059,-36.507706 l -0.004,-0.004 c 0,0 9.39073,10.912696 -0.002,-0.002 -5.2603,-6.06333 -11.87031,-6.480739 -13.76133,-6.480739 -0.22141,0 -0.47754,-0.005 -0.76584,-0.006 z m 0.0587,0.602299 c 2.53726,0 8.3434,0.77668 13.35559,6.549971 6.91432,7.217541 6.8047,18.727942 6.8047,34.696458 l -33.46619,-0.06149 c 1.17953,-3.224443 5.75772,-17.590921 5.97586,-21.393891 v -0.006 -0.006 c 0.0688,-2.13164 -0.28006,-3.43061 -0.99425,-4.22041 -0.7142,-0.78979 -1.71269,-0.94059 -2.62879,-0.95912 -0.584,-0.0118 -1.22317,0.20598 -1.93373,0.50023 -0.71055,0.29425 -1.47287,0.68043 -2.18333,1.05833 -0.71046,0.3779 -1.36977,0.74748 -1.85363,1.00614 -0.12644,0.0676 -0.19812,0.10056 -0.29714,0.15038 -0.018,-0.111188 -0.0359,-0.199078 -0.0548,-0.342088 -0.0672,-0.50812 -0.13677,-1.19015 -0.18913,-1.90428 -0.0524,-0.71413 -0.0878,-1.46153 -0.0899,-2.09962 -0.002,-0.63808 0.0416,-1.18877 0.0977,-1.40197 0.15407,-0.58548 0.37974,-1.12315 1.11517,-2.0314 0.73543,-0.908261 1.97811,-2.15748 4.1057,-4.04317 0.45775,-0.361601 0.86374,-0.886351 1.26917,-1.375111 0.41316,-0.49808 0.83578,-0.95197 1.09967,-1.10329 3.74508,-2.050454 7.33006,-3.013669 9.86733,-3.013669 z"
       style="color:#000000;font-style:normal;font-variant:normal;font-weight:normal;font-stretch:normal;font-size:medium;line-height:normal;font-family:sans-serif;font-variant-ligatures:normal;font-variant-position:normal;font-variant-caps:normal;font-variant-numeric:normal;font-variant-alternates:normal;font-feature-settings:normal;text-indent:0;text-align:start;text-decoration:none;text-decoration-line:none;text-decoration-style:solid;text-decoration-color:#000000;letter-spacing:normal;word-spacing:normal;text-transform:none;writing-mode:lr-tb;direction:ltr;text-orientation:mixed;dominant-baseline:auto;baseline-shift:baseline;text-anchor:start;white-space:normal;shape-padding:0;clip-rule:nonzero;display:inline;overflow:visible;visibility:visible;opacity:1;isolation:auto;mix-blend-mode:normal;color-interpolation:sRGB;color-interpolation-filters:linearRGB;solid-color:#000000;solid-opacity:1;vector-effect:none;fill:#153477;fill-opacity:1;fill-rule:nonzero;stroke:none;stroke-width:0.96499997;stroke-linecap:square;stroke-linejoin:miter;stroke-miterlimit:4;stroke-dasharray:none;stroke-dashoffset:0;stroke-opacity:1;color-rendering:auto;image-rendering:auto;shape-rendering:auto;text-rendering:auto;enable-background:accumulate"
       inkscape:connector-curvature="0" />
    <path
       style="fill:#153477;fill-opacity:1;stroke:none;stroke-width:0.26458332px;stroke-linecap:butt;stroke-linejoin:miter;stroke-opacity:1"
       d="m -179.87043,-50.151148 c -0.3274,-1.78904 -0.46584,-4.21018 0.15265,-5.5271 0.82079,-1.49235 3.075,-3.73423 6.02528,-5.72369 0.78589,-0.52995 1.08281,-1.738521 2.02848,-2.20092 4.49575,-2.19826 7.69178,-3.08785 10.11353,-2.37202 9.19023,8.51726 10.02186,17.8198 0.85983,27.803116 8.60074,-16.158026 -3.36547,-19.297887 -6.13025,-2.733366 -0.48183,-6.49982 3.83041,-16.69585 -7.47077,-12.24885 -1.6957,0.66726 -4.93563,2.41818 -5.57875,3.00283 z"
       id="path1336"
       inkscape:connector-curvature="0" />
    <path
       style="fill:#ffffff;fill-opacity:1;stroke:none;stroke-width:0.17992724px;stroke-linecap:butt;stroke-linejoin:miter;stroke-opacity:1"
       d="m -164.2911,-62.241398 c -0.18481,-0.21346 -0.41957,-0.48155 -0.65162,-0.65601 -0.12164,-0.0914 0.41861,-1.22907 1.26748,-1.70219 -0.48453,-0.009 -1.82522,1.532519 -1.90954,1.614289 -1.20556,1.169041 -2.2096,1.885521 -4.58481,3.168901 0.0457,0.29476 0.0435,0.401309 0.34513,0.58992 0.54658,-0.11489 1.06237,-0.15223 1.54533,-0.15259 1.86441,-10e-4 3.23966,0.54812 4.00957,-0.68619 0.50343,-0.80709 0.36231,-1.529741 -0.0215,-2.17613 z"
       id="path1338"
       inkscape:connector-curvature="0" />
    <path
       style="fill:#00529c;fill-opacity:1;stroke:none;stroke-width:0.2693356px;stroke-linecap:butt;stroke-linejoin:miter;stroke-opacity:1"
       d="m -164.47474,-27.563569 c 15.62021,0.614969 20.92236,-10.700453 20.92236,-10.700453 0,0 0.33409,-11.924546 -4.72173,-19.238056 -5.35638,-7.74827 -12.68817,-8.53846 -12.68817,-8.53846 10.16401,8.614159 8.48721,19.443517 2.23367,26.905294 -0.24792,0.295816 -3.33189,4.706629 -5.74613,11.571675 z"
       id="path1340"
       inkscape:connector-curvature="0" />
    <path
       id="path1344"
       d="m -175.6033,-60.076909 c 2.9614,1.407441 4.40404,2.326011 6.48229,5.853901 -0.26813,-1.42752 -1.04168,-4.70823 -5.92005,-6.94531 z"
       style="fill:#ffffff;fill-opacity:1;stroke:none;stroke-width:0.26458332px;stroke-linecap:butt;stroke-linejoin:miter;stroke-opacity:1"
       inkscape:connector-curvature="0" />
    <g
       id="g1360"
       transform="translate(-262.81658,-154.82273)"
       style="opacity:1;fill:#c1cddc;fill-opacity:1">
      <path
         style="fill:#c1cddc;fill-opacity:1;stroke:none;stroke-width:0.26458332px;stroke-linecap:butt;stroke-linejoin:miter;stroke-opacity:1"
         d="m 106.85469,90.4668 c -0.37211,0.769457 -1.06229,1.329122 -1.61999,1.738077 0.61571,0.03444 1.41221,-0.460389 2.12182,-1.470398 z"
         id="path1346"
         inkscape:connector-curvature="0" />
      <path
         id="path1348"
         d="m 109.6634,92.224594 c -0.59032,1.220679 -1.75801,2.041397 -2.64276,2.69017 0.97677,0.05464 2.12916,-0.610911 3.2549,-2.213206 z"
         style="fill:#c1cddc;fill-opacity:1;stroke:none;stroke-width:0.41973925px;stroke-linecap:butt;stroke-linejoin:miter;stroke-opacity:1"
         inkscape:connector-curvature="0" />
      <path
         style="fill:#c1cddc;fill-opacity:1;stroke:none;stroke-width:0.59059167px;stroke-linecap:butt;stroke-linejoin:miter;stroke-opacity:1"
         d="m 112.11758,94.365721 c -0.8306,1.717549 -2.39685,2.909262 -3.64173,3.822114 1.37436,0.07688 2.89348,-0.644203 4.47745,-2.898703 z"
         id="path1350"
         inkscape:connector-curvature="0" />
      <path
         id="path1352"
         d="m 114.34662,97.069378 c -1.12922,2.335063 -3.52351,4.132252 -5.21596,5.373292 1.86848,0.10455 4.17088,-0.63043 6.32433,-3.695477 0,0 -0.82189,-1.403028 -1.10837,-1.677815 z"
         style="fill:#c1cddc;fill-opacity:1;stroke:none;stroke-width:0.80292594px;stroke-linecap:butt;stroke-linejoin:miter;stroke-opacity:1"
         inkscape:connector-curvature="0" />
      <path
         style="fill:#c1cddc;fill-opacity:1;stroke:none;stroke-width:1.25519192px;stroke-linecap:butt;stroke-linejoin:miter;stroke-opacity:1"
         d="m 116.58482,101.02866 c -1.56292,3.74145 -6.30511,6.76735 -8.95087,8.70743 2.92094,0.16344 6.45873,-1.37568 9.82516,-6.16719 0,0 -0.46503,-1.70419 -0.87429,-2.54024 z"
         id="path1354"
         inkscape:connector-curvature="0" />
      <path
         id="path1356"
         d="m 118.28899,106.56553 c -1.8675,3.86168 -14.69689,14.06828 -18.26471,16.55427 3.72642,0 5.83357,-0.25021 7.1277,-0.68506 1.05579,-0.53442 10.26104,-8.46008 11.94008,-10.39702 -0.0827,-1.64539 -0.80307,-5.47219 -0.80307,-5.47219 z"
         style="fill:#c1cddc;fill-opacity:1;stroke:none;stroke-width:1.67986095px;stroke-linecap:butt;stroke-linejoin:miter;stroke-opacity:1"
         inkscape:connector-curvature="0" />
      <path
         id="path1358"
         d="m 103.83206,89.23566 c -0.14821,0.270838 -0.39538,0.493509 -0.72996,0.659088 0.48628,-0.08835 0.73728,-0.298218 0.98634,-0.578363 z"
         style="fill:#c1cddc;fill-opacity:1;stroke:none;stroke-width:0.17876428px;stroke-linecap:butt;stroke-linejoin:miter;stroke-opacity:1"
         inkscape:connector-curvature="0" />
    </g>
    <g
       style="fill:#c1cddc;fill-opacity:1"
       id="g1366"
       transform="translate(-224.09863,-184.40193)">
      <path
         style="fill:#00529c;fill-opacity:1;stroke:none;stroke-width:0.26458332px;stroke-linecap:butt;stroke-linejoin:miter;stroke-opacity:1"
         d="m 54.625532,124.20017 c -0.01169,0.11108 0.0048,0.5726 0.361451,0.86493 0,0 0.896675,-0.0815 2.001222,0.0151 0,0 0.615273,-0.45742 0.562654,-1.23501 0.0058,-0.0994 -0.05604,-0.75006 -0.664081,-1.03654 -0.333252,0.22801 -1.170135,0.79588 -2.261246,1.39152 z"
         id="path1362"
         inkscape:connector-curvature="0" />
      <path
         style="color:#000000;font-style:normal;font-variant:normal;font-weight:normal;font-stretch:normal;font-size:medium;line-height:normal;font-family:sans-serif;font-variant-ligatures:normal;font-variant-position:normal;font-variant-caps:normal;font-variant-numeric:normal;font-variant-alternates:normal;font-feature-settings:normal;text-indent:0;text-align:start;text-decoration:none;text-decoration-line:none;text-decoration-style:solid;text-decoration-color:#000000;letter-spacing:normal;word-spacing:normal;text-transform:none;writing-mode:lr-tb;direction:ltr;text-orientation:mixed;dominant-baseline:auto;baseline-shift:baseline;text-anchor:start;white-space:normal;shape-padding:0;clip-rule:nonzero;display:inline;overflow:visible;visibility:visible;opacity:1;isolation:auto;mix-blend-mode:normal;color-interpolation:sRGB;color-interpolation-filters:linearRGB;solid-color:#000000;solid-opacity:1;vector-effect:none;fill:#c1cddc;fill-opacity:1;fill-rule:nonzero;stroke:none;stroke-width:0.26458332px;stroke-linecap:butt;stroke-linejoin:miter;stroke-miterlimit:4;stroke-dasharray:none;stroke-dashoffset:0;stroke-opacity:1;color-rendering:auto;image-rendering:auto;shape-rendering:auto;text-rendering:auto;enable-background:accumulate"
         d="m 61.856267,118.53309 c -0.806567,0.0922 -1.505924,0.51477 -2.089793,0.99115 0.06745,-0.11462 0.128786,-0.21127 0.172598,-0.26252 0.187674,-0.2195 0.925526,-0.709 0.925526,-0.709 0,0 -0.817645,0.29172 -1.656231,1.33842 0.246554,-0.67663 0.472947,-0.94096 0.698858,-1.1439 0,0 -0.869175,0.13979 -1.222339,1.56662 -0.311608,1.25894 -2.136694,2.79743 -4.847248,4.16408 0,0 -0.06926,0.10341 -0.04136,0.17576 l 0.129721,-0.0672 c 2.769854,-1.46855 4.043122,-2.47781 4.914134,-3.53493 0.969686,-1.17688 2.180684,-2.27287 3.016134,-2.51845 z"
         id="path1364"
         inkscape:connector-curvature="0" />
    </g>
    <ellipse
       transform="rotate(-45.876907)"
       ry="0.39171687"
       rx="0.28647953"
       cy="-162.56665"
       cx="-72.99675"
       id="ellipse1368"
       style="opacity:1;fill:#ffffff;fill-opacity:0.354717;fill-rule:nonzero;stroke:none;stroke-width:0.10699999;stroke-linecap:round;stroke-linejoin:miter;stroke-miterlimit:4;stroke-dasharray:none;stroke-dashoffset:0;stroke-opacity:0.93181817;paint-order:stroke fill markers" />
    <path
       style="fill:#c1cddc;fill-opacity:1;stroke:none;stroke-width:0.26458332px;stroke-linecap:butt;stroke-linejoin:miter;stroke-opacity:1"
       d="m -161.18403,-64.098548 c -2.07163,1.66453 -2.03814,1.90168 -2.97863,3.83129 -0.21431,0.42084 -0.5434,0.804239 -1.15548,0.94051 -0.7134,0.15883 -1.89517,-0.0918 -3.25149,-0.0424 -0.63391,0.0231 -0.84391,0.0534 -1.26193,0.141079 l 0.002,0.002 0.30024,0.15503 c 0,0 0.71026,-0.36807 1.74201,-0.0475 0.65616,0.203851 2.03882,1.002551 3.43441,4.055051 -0.79457,-2.673601 -1.60805,-3.334701 -2.0836,-3.965661 0.6376,-0.0304 1.25607,-0.0336 1.74857,-0.0225 0.90659,0.0203 2.16089,0.0641 3.36688,1.05711 0.38056,0.31337 0.89845,0.44637 1.38131,0.28681 0.63081,-0.20843 1.06031,-0.90538 0.80874,-1.57355 h 5.3e-4 c -0.0932,-0.24743 -0.27654,-0.44717 -0.50695,-0.56482 -0.23041,-0.11765 -0.52285,-0.14831 -0.79013,-0.0253 -0.18153,0.0835 -0.32224,0.22918 -0.40205,0.4129 -0.0798,0.18371 -0.0861,0.42955 0.046,0.62993 0.0834,0.1265 0.18862,0.19795 0.33487,0.23719 0.0731,0.0196 0.16164,0.0289 0.25786,-5.29e-4 0.0962,-0.0294 0.19155,-0.10524 0.24391,-0.19638 -0.15358,0.0568 -0.38871,0.1051 -0.47955,-0.15296 -0.0563,-0.22489 0.0479,-0.36027 0.18345,-0.43046 0.094,-0.0487 0.24801,-0.0223 0.34933,0.0294 0.10132,0.0517 0.19332,0.15212 0.2341,0.26045 0.12755,0.33881 -0.11096,0.72287 -0.45838,0.83767 -0.27948,0.0923 -0.67072,-0.0484 -0.83664,-0.17931 -0.72043,-0.5684 -1.39246,-0.70096 -3.10006,-0.71107 0.13067,-0.10182 0.23153,-0.25073 0.29145,-0.47336 0.67725,-2.51624 1.5104,-3.469 2.57917,-4.49068 z"
       id="path1370"
       inkscape:connector-curvature="0" />
  </g>
  <ellipse
     style="opacity:1;fill:none;fill-opacity:1;fill-rule:nonzero;stroke:#153477;stroke-width:3.16499996;stroke-linecap:round;stroke-linejoin:round;stroke-miterlimit:4;stroke-dasharray:6.32999988, 3.16499994;stroke-dashoffset:0;stroke-opacity:1;paint-order:markers fill stroke"
     id="ellipse843"
     cx="33.973492"
     cy="25.384598"
     rx="21.829391"
     ry="20.698788"
     transform="scale(-1,1)" />
</svg>
