<?xml version="1.0" encoding="UTF-8" standalone="no"?>
<svg
   xmlns:dc="http://purl.org/dc/elements/1.1/"
   xmlns:cc="http://creativecommons.org/ns#"
   xmlns:rdf="http://www.w3.org/1999/02/22-rdf-syntax-ns#"
   xmlns:svg="http://www.w3.org/2000/svg"
   xmlns="http://www.w3.org/2000/svg"
   xmlns:sodipodi="http://sodipodi.sourceforge.net/DTD/sodipodi-0.dtd"
   xmlns:inkscape="http://www.inkscape.org/namespaces/inkscape"
   width="24"
   height="24"
   viewBox="0 0 24 24"
   id="svg3367"
   version="1.1"
   inkscape:version="0.91 r13725"
   sodipodi:docname="activo2.svg"
   inkscape:export-filename="/home/raul/desarrollo/raul/iconos/inactivo2.png"
   inkscape:export-xdpi="642"
   inkscape:export-ydpi="642">
  <metadata
     id="metadata3379">
    <rdf:RDF>
      <cc:Work
         rdf:about="">
        <dc:format>image/svg+xml</dc:format>
        <dc:type
           rdf:resource="http://purl.org/dc/dcmitype/StillImage" />
        <dc:title></dc:title>
      </cc:Work>
    </rdf:RDF>
  </metadata>
  <defs
     id="defs3377" />
  <sodipodi:namedview
     pagecolor="#ffffff"
     bordercolor="#666666"
     borderopacity="1"
     objecttolerance="10"
     gridtolerance="10"
     guidetolerance="10"
     inkscape:pageopacity="0"
     inkscape:pageshadow="2"
     inkscape:window-width="1366"
     inkscape:window-height="705"
     id="namedview3375"
     showgrid="false"
     inkscape:zoom="9.8333333"
     inkscape:cx="-8.0847459"
     inkscape:cy="12"
     inkscape:window-x="0"
     inkscape:window-y="30"
     inkscape:window-maximized="1"
     inkscape:current-layer="svg3367" />
  <path
     fill="none"
     d="M0 0h24v24H0V0z"
     id="path3369" />
  <path
     opacity=".3"
     d="M6 9c0 3.54 3.82 8.86 6 11.47 1.75-2.11 6-7.63 6-11.47 0-3.31-2.69-6-6-6S6 5.69 6 9zm9 2.5v.12c-.73.84-1.8 1.38-3 1.38s-2.27-.54-3-1.38v-.12c0-1 2-1.5 3-1.5s3 .5 3 1.5zm-1.5-4c0 .83-.67 1.5-1.5 1.5s-1.5-.67-1.5-1.5S11.17 6 12 6s1.5.67 1.5 1.5z"
     id="path3371"
     style="fill:#2297ea;opacity:1;fill-opacity:1"
     inkscape:export-xdpi="676.3006"
     inkscape:export-ydpi="676.3006" />
  <path
     d="M4 9c0 5.57 6.96 13.34 7.26 13.67l.74.82.74-.82C13.04 22.34 20 14.57 20 9c0-4.41-3.59-8-8-8S4 4.59 4 9zm14 0c0 3.83-4.25 9.36-6 11.47C9.82 17.86 6 12.54 6 9c0-3.31 2.69-6 6-6s6 2.69 6 6zm-7.5-1.5c0 .83.67 1.5 1.5 1.5s1.5-.67 1.5-1.5S12.83 6 12 6s-1.5.67-1.5 1.5zm-1.5 4v.12c.73.84 1.8 1.38 3 1.38s2.27-.54 3-1.38v-.12c0-1-2-1.5-3-1.5s-3 .5-3 1.5z"
     id="path3373"
     style="fill:#ffffff"
     inkscape:export-xdpi="676.3006"
     inkscape:export-ydpi="676.3006" />
</svg>
