<?xml version="1.0" encoding="UTF-8" standalone="no"?>
<svg
   xmlns:dc="http://purl.org/dc/elements/1.1/"
   xmlns:cc="http://creativecommons.org/ns#"
   xmlns:rdf="http://www.w3.org/1999/02/22-rdf-syntax-ns#"
   xmlns:svg="http://www.w3.org/2000/svg"
   xmlns="http://www.w3.org/2000/svg"
   xmlns:sodipodi="http://sodipodi.sourceforge.net/DTD/sodipodi-0.dtd"
   xmlns:inkscape="http://www.inkscape.org/namespaces/inkscape"
   width="24"
   height="24"
   viewBox="0 0 24 24"
   id="svg3452"
   version="1.1"
   inkscape:version="0.91 r13725"
   sodipodi:docname="activo.svg">
  <metadata
     id="metadata3462">
    <rdf:RDF>
      <cc:Work
         rdf:about="">
        <dc:format>image/svg+xml</dc:format>
        <dc:type
           rdf:resource="http://purl.org/dc/dcmitype/StillImage" />
        <dc:title></dc:title>
      </cc:Work>
    </rdf:RDF>
  </metadata>
  <defs
     id="defs3460" />
  <sodipodi:namedview
     pagecolor="#ffffff"
     bordercolor="#666666"
     borderopacity="1"
     objecttolerance="10"
     gridtolerance="10"
     guidetolerance="10"
     inkscape:pageopacity="0"
     inkscape:pageshadow="2"
     inkscape:window-width="1366"
     inkscape:window-height="705"
     id="namedview3458"
     showgrid="false"
     inkscape:zoom="15.523244"
     inkscape:cx="11.323978"
     inkscape:cy="11.921626"
     inkscape:window-x="0"
     inkscape:window-y="30"
     inkscape:window-maximized="1"
     inkscape:current-layer="svg3452" />
  <path
     inkscape:connector-curvature="0"
     inkscape:export-ydpi="642.52698"
     inkscape:export-xdpi="642.52698"
     style="fill:#ffffff"
     id="path4134"
     d="m 11.93558,0.64718998 c -4.854637,0 -8.8037461,3.65945902 -8.8037461,8.15802952 0,4.8598545 5.5589371,11.5610935 7.8479111,14.1133905 0.503071,0.559408 1.421177,0.559408 1.924248,0 2.276397,-2.552297 7.835334,-9.253536 7.835334,-14.1133905 0,-4.4985705 -3.949109,-8.15802952 -8.803747,-8.15802952 z"
     sodipodi:nodetypes="ssccss" />
  <path
     fill="none"
     d="M0 0h24v24H0V0z"
     id="path3454" />
  <path
     d="m 11.93558,0.64718998 c -4.854637,0 -8.8037461,3.65945902 -8.8037461,8.15802952 0,4.8598545 5.5589371,11.5610935 7.8479111,14.1133905 0.503071,0.559408 1.421177,0.559408 1.924248,0 2.276397,-2.552297 7.835334,-9.253536 7.835334,-14.1133905 0,-4.4985705 -3.949109,-8.15802952 -8.803747,-8.15802952 z m 0,2.33086562 c 1.383447,0 2.515356,1.0488895 2.515356,2.3308655 0,1.2936304 -1.131909,2.3308656 -2.515356,2.3308656 -1.383446,0 -2.5153557,-1.0372352 -2.5153557,-2.3308656 0,-1.281976 1.1319097,-2.3308655 2.5153557,-2.3308655 z m 0,11.6543274 c -2.1003215,0 -3.9491087,-0.990618 -5.0307118,-2.50568 0.025153,-1.538371 3.3579998,-2.3891369 5.0307118,-2.3891369 1.672713,0 5.005559,0.8507659 5.030713,2.3891369 -1.081603,1.515062 -2.930391,2.50568 -5.030713,2.50568 z"
     id="path3456"
     style="fill:#0000ff"
     inkscape:export-xdpi="642.52698"
     inkscape:export-ydpi="642.52698"
     inkscape:connector-curvature="0" />
</svg>
