<?xml version="1.0" encoding="UTF-8" standalone="no"?>
<svg
   xmlns:dc="http://purl.org/dc/elements/1.1/"
   xmlns:cc="http://creativecommons.org/ns#"
   xmlns:rdf="http://www.w3.org/1999/02/22-rdf-syntax-ns#"
   xmlns:svg="http://www.w3.org/2000/svg"
   xmlns="http://www.w3.org/2000/svg"
   xmlns:sodipodi="http://sodipodi.sourceforge.net/DTD/sodipodi-0.dtd"
   xmlns:inkscape="http://www.inkscape.org/namespaces/inkscape"
   width="24"
   height="24"
   viewBox="0 0 24 24"
   id="svg3540"
   version="1.1"
   inkscape:version="0.91 r13725"
   sodipodi:docname="notification_In.svg">
  <metadata
     id="metadata3548">
    <rdf:RDF>
      <cc:Work
         rdf:about="">
        <dc:format>image/svg+xml</dc:format>
        <dc:type
           rdf:resource="http://purl.org/dc/dcmitype/StillImage" />
        <dc:title></dc:title>
      </cc:Work>
    </rdf:RDF>
  </metadata>
  <defs
     id="defs3546" />
  <sodipodi:namedview
     pagecolor="#ffffff"
     bordercolor="#666666"
     borderopacity="1"
     objecttolerance="10"
     gridtolerance="10"
     guidetolerance="10"
     inkscape:pageopacity="0"
     inkscape:pageshadow="2"
     inkscape:window-width="1366"
     inkscape:window-height="705"
     id="namedview3544"
     showgrid="false"
     inkscape:zoom="9.8333333"
     inkscape:cx="-27.559322"
     inkscape:cy="12"
     inkscape:window-x="0"
     inkscape:window-y="30"
     inkscape:window-maximized="1"
     inkscape:current-layer="svg3540" />
  <path
     d="M12 23c1.1 0 1.99-.89 1.99-1.99h-3.98c0 1.1.89 1.99 1.99 1.99zm8.29-4.71L19 17v-6c0-3.35-2.36-6.15-5.5-6.83V3c0-.83-.67-1.5-1.5-1.5s-1.5.67-1.5 1.5v1.17C7.36 4.85 5 7.65 5 11v6l-1.29 1.29c-.63.63-.19 1.71.7 1.71h15.17c.9 0 1.34-1.08.71-1.71zM13 16h-2v-2h2v2zm0-5c0 .55-.45 1-1 1s-1-.45-1-1V9c0-.55.45-1 1-1s1 .45 1 1v2z"
     id="path3542"
     style="fill:#666666"
     inkscape:export-xdpi="891.62793"
     inkscape:export-ydpi="891.62793" />
</svg>
