<?xml version="1.0" encoding="UTF-8" standalone="no"?>
<svg
   xmlns:dc="http://purl.org/dc/elements/1.1/"
   xmlns:cc="http://creativecommons.org/ns#"
   xmlns:rdf="http://www.w3.org/1999/02/22-rdf-syntax-ns#"
   xmlns:svg="http://www.w3.org/2000/svg"
   xmlns="http://www.w3.org/2000/svg"
   xmlns:sodipodi="http://sodipodi.sourceforge.net/DTD/sodipodi-0.dtd"
   xmlns:inkscape="http://www.inkscape.org/namespaces/inkscape"
   width="24"
   height="24"
   viewBox="0 0 24 24"
   id="svg3386"
   version="1.1"
   inkscape:version="0.91 r13725"
   sodipodi:docname="PMA-24px.svg"
   inkscape:export-filename="/home/raul/desarrollo/raul/iconos/PMA-24px"
   inkscape:export-xdpi="90"
   inkscape:export-ydpi="90">
  <metadata
     id="metadata3396">
    <rdf:RDF>
      <cc:Work
         rdf:about="">
        <dc:format>image/svg+xml</dc:format>
        <dc:type
           rdf:resource="http://purl.org/dc/dcmitype/StillImage" />
        <dc:title />
      </cc:Work>
    </rdf:RDF>
  </metadata>
  <defs
     id="defs3394" />
  <sodipodi:namedview
     pagecolor="#ffffff"
     bordercolor="#666666"
     borderopacity="1"
     objecttolerance="10"
     gridtolerance="10"
     guidetolerance="10"
     inkscape:pageopacity="0"
     inkscape:pageshadow="2"
     inkscape:window-width="1366"
     inkscape:window-height="705"
     id="namedview3392"
     showgrid="false"
     inkscape:zoom="13.536809"
     inkscape:cx="-16.379582"
     inkscape:cy="11.483839"
     inkscape:window-x="0"
     inkscape:window-y="30"
     inkscape:window-maximized="1"
     inkscape:current-layer="svg3386" />
  <path
     fill="none"
     d="M0 0h24v24H0V0z"
     id="path3388" />
  <path
     d="m 9.581578,16.318047 0,-5 4,0 0,5 c 0,0.55 0.45,1 1,1 l 3,0 c 0.55,0 1,-0.45 1,-1 l 0,-7 1.7,0 c 0.46,0 0.68,-0.57 0.33,-0.87 l -8.36,-7.53 c -0.38,-0.34 -0.96,-0.34 -1.34,0 l -8.36,7.53 c -0.34,0.3 -0.13,0.87 0.33,0.87 l 1.7,0 0,7 c 0,0.55 0.45,1 1,1 l 3,0 c 0.55,0 1,-0.45 1,-1 z"
     id="path3390"
     style="fill:#000080"
     inkscape:connector-curvature="0"
     inkscape:export-xdpi="881.513"
     inkscape:export-ydpi="881.513" />
  <text
     xml:space="preserve"
     style="font-style:normal;font-variant:normal;font-weight:normal;font-stretch:normal;font-size:6.06607056px;line-height:125%;font-family:'Arial Black';-inkscape-font-specification:'Arial Black, ';letter-spacing:0px;word-spacing:0px;fill:#000080;fill-opacity:1;stroke:none;stroke-width:1px;stroke-linecap:butt;stroke-linejoin:miter;stroke-opacity:1"
     x="4.2383046"
     y="22.068521"
     id="text3398"
     sodipodi:linespacing="125%"
     transform="scale(0.980307,1.0200886)"
     inkscape:export-xdpi="881.513"
     inkscape:export-ydpi="881.513"><tspan
       sodipodi:role="line"
       id="tspan3400"
       x="4.2383046"
       y="22.068521">PMA</tspan></text>
</svg>
